<?xml version="1.0" encoding="UTF-8"?>
<svg id="Orbitz-logo" xmlns="http://www.w3.org/2000/svg" viewBox="0 0 1178.4 705.7">
  <defs>
    <style>
      .cls-1 {
        fill: #96afd8;
      }

      .cls-2 {
        fill: #fcb818;
      }

      .cls-3 {
        fill: #f08721;
      }

      .cls-4 {
        fill: #44618d;
      }

      .cls-5 {
        fill: #b12627;
      }
    </style>
  </defs>
  <path id="planet-o" class="cls-5" d="m795.32,120.26c3.57-6.64,14.56-17.88,20.65-24.14-12.86-39.75-49.32-65.99-93.35-65.99-54.68,0-99,44.32-99,99,0,30.84,11.75,56.39,33.86,74.55,5.67-1.88,14.04-5.18,20.06-7.67,20.09-8.34,36.16-17.61,49.7-25.87-9.19,18.04-29.72,31.33-56.85,43.23,15.64,10.35,32.07,14.77,52.23,14.77,54.68,0,99-44.32,99-99,0-8.71-.58-14.94-2.69-22.99-5.96,4.47-11.86,7.99-23.61,14.12Zm-40.18,55.37c-16.84,0-30.5-13.66-30.5-30.5s13.66-30.5,30.5-30.5,30.5,13.66,30.5,30.5-13.66,30.5-30.5,30.5Z"/>
  <path id="ring-left" class="cls-2" d="m677.41,199.15c-41.56,17.06-76.41,20.09-80.73,6.55-3.18-9.97,10.14-20.11,13.62-25.19-13.9,10.8-36.77,28.94-32.98,40.73,4.35,13.53,43.47,9.99,85.03-7.07,29.86-12.26,53.4-28.35,62.29-41.32-11.74,9.12-28.2,18.49-47.23,26.3Z"/>
  <path id="ring-right" class="cls-2" d="m823.15,92.17c17.36-17.62,41.67-44.21,30.38-54.13-5.7-5.01-18.87-3.62-23.98-2.66,12-8.94,31.13-11.13,39.46.28,8.85,12.12-15.9,40.77-32.44,53.99-17.61,14.08-22.61,18-37.68,27.54,7.26-7.55,16.65-17.3,24.26-25.02Z"/>
  <circle id="orb-small" class="cls-1" cx="809.89" cy="36.84" r="6.71"/>
  <circle id="orb-big" class="cls-4" cx="592.6" cy="79.39" r="11.45"/>
  <g>
    <path class="cls-3" d="m851.32,174.64c-6.31,15.33-14.43,30.61-24.34,45.53-1.75,2.64-3.85,4.77-6.26,6.41-2.99,2.03-5.78,3.04-8.3,3.05-3.29.02-4.44-1.54-3.52-4.71.35-1.31,1.17-2.87,2.44-4.69,22.22-31.77,36.28-65.2,42.18-97.18,2.5-13.73,6.07-20.34,12.96-20.32,5.05.03,10.09.05,15.14.08,5.99.03,10.91,1.97,14.77,5.84,2.19,2.24,4.07,5.24,5.53,9.03,2.23,5.72,3.14,12.46,2.24,20.27-2.19,18.82-11.77,30.15-25.24,33.69,2.12,13.69,3.47,27.33,4.06,40.69.07,1.82-.48,3.87-1.72,6.17-2.06,3.83-4.88,6.69-8.37,8.6-2.59,1.42-4.89,2.13-6.83,2.14-3.14.02-4.44-1.88-4.02-5.75,1.79-15.94,2.35-32.37,1.66-48.89-4.13,0-8.26,0-12.39.01Zm6.92-19.05c4.63,0,9.26,0,13.88,0,9.82.01,16.4-5.81,18.18-17.32,1.62-11.16-2.59-16.66-11.17-16.7-3.77-.01-7.54-.03-11.31-.04-1.2,0-1.95,1.13-2.31,3.4-1.61,10.11-4.04,20.37-7.28,30.66Z"/>
    <path class="cls-3" d="m956.45,162.1c11.47,3.4,17.35,13.71,13.91,30.72-2.66,12.61-9.73,21.91-20.33,28.07-7.11,4.15-15.18,6.23-23.77,6.27-8.02.04-16.04.08-24.07.13-8,.03-8.54-5.53-3.18-16.99,13.65-29.78,20.21-60.75,19.69-90.4-.23-11.36,1.77-16.86,7.54-16.84,5.21.03,10.42.06,15.64.08,6.18.03,11.55,1.83,16.13,5.41,6.92,5.38,11.74,13.81,12.8,25.49,1.31,15.18-4.21,24.61-14.36,28.07Zm-26.89-8.92c4.79,0,9.58,0,14.37.01,3.37,0,6.37-1.09,8.86-3.26,3.58-3.12,5.34-7.67,5.11-13.61-.25-6.05-2.26-10.37-5.58-13.02-2.22-1.76-4.93-2.65-8.13-2.66-3.84-.01-7.69-.03-11.53-.04-1.25,0-1.81,1.12-1.74,3.37.29,9.64-.16,19.4-1.35,29.21Zm-3.11,18.43c-2.35,10.89-5.62,21.76-9.8,32.5-1.11,2.82-.74,4.22,1.2,4.22,4.97-.02,9.94-.04,14.91-.06,5.17-.02,9.53-1.08,12.96-3.18,4.41-2.77,7.61-7.58,9.25-14.48,1.71-7.29.39-12.58-3.31-15.82-2.4-2.12-5.71-3.19-9.94-3.18-5.08,0-10.17,0-15.26.01Z"/>
    <path class="cls-3" d="m992.05,120.17c-2.18,0-4.36-.02-6.54-.02-.96,0-1.9-.61-2.82-1.81-1.28-1.64-2.22-3.87-2.92-6.69-.83-3.36-.92-5.77-.17-7.26.32-.69.83-1.04,1.55-1.04,7.98.04,15.95.09,23.93.13.94,0,1.97.6,3.09,1.78,1.45,1.56,2.71,3.76,3.7,6.62,1.13,3.29,1.27,5.74.49,7.31-.34.71-.91,1.06-1.7,1.05-2.17,0-4.33-.02-6.5-.02,7.82,29.48,8.59,60.23,2.32,89.75,2.72-.01,5.45-.02,8.17-.03,1.24,0,2.19.59,2.84,1.79.83,1.58.96,3.8.3,6.67-.76,3.3-2.21,5.72-4.27,7.28-.92.7-1.89,1.05-2.92,1.06-10.97.06-21.94.11-32.91.17-1.26,0-2.1-.58-2.54-1.76-.65-1.56-.46-3.76.48-6.64,1.1-3.37,2.6-5.83,4.61-7.37.89-.71,1.81-1.07,2.76-1.08,2.74-.01,5.49-.02,8.23-.03,7.32-29.56,7.59-60.35.81-89.85Z"/>
    <path class="cls-3" d="m1045.18,123.72c-6.31-.02-12.62-.04-18.93-.07-.85,0-1.69-.36-2.53-1.07-2.06-1.75-3.73-4.75-5.21-8.97-1.24-3.51-1.75-6.22-1.44-8.14.17-1.28.77-1.92,1.82-1.91,15.8.08,31.6.17,47.4.25.88,0,1.92.46,3.11,1.37,2.35,1.87,4.63,4.73,6.67,8.6,1.95,3.71,2.72,6.51,2.39,8.35-.19,1.14-.83,1.71-1.89,1.7-6.31-.02-12.62-.04-18.93-.07,12.51,31.4,17.05,64.11,13.61,95.11-.3,2.74-1.28,4.94-2.9,6.6-1.8,1.87-4,2.81-6.52,2.83-3.41.02-5.48-1.51-6.29-4.6-.37-1.33-.41-2.92-.14-4.75,4.58-31.04,1.17-63.8-10.21-95.23Z"/>
    <path class="cls-3" d="m1121.92,123.82c-10.09-.03-20.19-.07-30.28-.1-1.29,0-2.77-.93-4.46-2.78-1.89-2.06-3.6-4.58-5.22-7.54-2.27-4.14-3.24-6.99-2.77-8.57.19-.64.64-.95,1.36-.95,12.62.07,25.24.13,37.86.2,2.12.01,4.72,1.26,7.76,3.77,2.12,1.76,4.07,3.87,5.79,6.33,2.5,3.59,4.12,7.2,4.79,10.82,5.03,26.69,1.58,54.36-10.4,81.17,14.82-.05,29.64-.11,44.46-.16,1.56,0,3.02.85,4.37,2.57,1.49,1.93,2.52,4.4,2.97,7.39.63,4.11-.04,7.05-1.87,8.86-.73.69-1.63,1.04-2.7,1.04-19.54.1-39.08.2-58.63.3-3.01.01-5.23-1.22-6.69-3.72-1.12-1.91-1.62-4.32-1.6-7.23.04-3.93,1-7.83,2.82-11.7,12.34-26.39,16.46-53.54,12.42-79.72Z"/>
  </g>
</svg>